# Blender 4.1.0
# www.blender.org
mtllib lamp.mtl
o Lantern_Plane.005
v -0.058001 -0.089981 0.070447
v 0.080706 -0.089981 0.070447
v -0.058001 -0.089981 -0.068259
v 0.080706 -0.089981 -0.068259
v -0.051964 -0.078386 0.064410
v 0.074669 -0.078386 0.064410
v -0.051964 -0.078386 -0.062222
v 0.074669 -0.078386 -0.062222
v -0.043127 -0.078386 0.055574
v 0.065832 -0.078386 0.055574
v -0.043127 -0.078386 -0.053385
v 0.065832 -0.078386 -0.053385
v -0.038382 -0.063625 0.050829
v 0.061087 -0.063625 0.050829
v -0.038382 -0.063625 -0.048640
v 0.061087 -0.063625 -0.048640
v -0.033628 -0.063625 0.046075
v 0.056334 -0.063625 0.046075
v -0.033628 -0.063625 -0.043887
v 0.056334 -0.063625 -0.043887
v -0.046125 0.130609 0.058572
v 0.068830 0.130609 0.058572
v -0.046125 0.130609 -0.056384
v 0.068830 0.130609 -0.056384
v -0.065141 0.130609 0.077588
v 0.087846 0.130609 0.077588
v -0.065141 0.130609 -0.075399
v 0.087846 0.130609 -0.075399
v -0.065141 0.139290 0.077588
v 0.087846 0.139290 0.077588
v -0.065141 0.139290 -0.075399
v 0.087846 0.139290 -0.075399
v -0.036082 0.151669 0.048529
v 0.058787 0.151669 0.048529
v -0.036082 0.151669 -0.046341
v 0.058787 0.151669 -0.046341
v -0.052000 -0.089981 0.070447
v 0.074705 -0.089981 0.070447
v 0.074705 -0.089981 -0.068259
v -0.052000 -0.089981 -0.068259
v -0.046486 -0.078386 0.064410
v 0.069191 -0.078386 0.064410
v 0.069191 -0.078386 -0.062222
v -0.046486 -0.078386 -0.062222
v -0.038414 -0.078386 0.055574
v 0.061119 -0.078386 0.055574
v 0.061119 -0.078386 -0.053385
v -0.038414 -0.078386 -0.053385
v -0.034079 -0.063625 0.050829
v 0.056785 -0.063625 0.050829
v 0.056784 -0.063625 -0.048640
v -0.034080 -0.063625 -0.048640
v -0.029737 -0.063625 0.046075
v 0.052443 -0.063625 0.046075
v 0.052443 -0.063625 -0.043887
v -0.029737 -0.063625 -0.043887
v -0.041153 0.130609 0.058572
v 0.063858 0.130609 0.058572
v 0.063858 0.130609 -0.056384
v -0.041153 0.130609 -0.056384
v -0.058523 0.130609 0.077588
v 0.081228 0.130609 0.077588
v 0.081228 0.130609 -0.075399
v -0.058523 0.130609 -0.075399
v -0.058523 0.139290 0.077588
v 0.081228 0.139290 0.077588
v 0.081228 0.139290 -0.075399
v -0.058523 0.139290 -0.075399
v -0.031979 0.151669 0.048529
v 0.054684 0.151669 0.048529
v 0.054684 0.151669 -0.046341
v -0.031979 0.151669 -0.046341
v -0.058001 -0.089981 -0.062701
v -0.058001 -0.089981 0.064889
v 0.080706 -0.089981 0.064889
v 0.080706 -0.089981 -0.062701
v -0.051964 -0.078386 -0.057148
v -0.051964 -0.078386 0.059336
v 0.074669 -0.078386 0.059336
v 0.074669 -0.078386 -0.057148
v -0.043127 -0.078386 -0.049019
v -0.043127 -0.078386 0.051208
v 0.065832 -0.078386 0.051208
v 0.065832 -0.078386 -0.049019
v -0.038382 -0.063625 -0.044654
v -0.038382 -0.063625 0.046843
v 0.061087 -0.063625 0.046843
v 0.061087 -0.063625 -0.044654
v -0.033628 -0.063625 -0.040282
v -0.033628 -0.063625 0.042471
v 0.056334 -0.063625 0.042471
v 0.056334 -0.063625 -0.040282
v -0.046125 0.130609 -0.051777
v -0.046125 0.130609 0.053966
v 0.068830 0.130609 0.053966
v 0.068830 0.130609 -0.051777
v -0.065141 0.130609 -0.069269
v -0.065141 0.130609 0.071457
v 0.087846 0.130609 0.071457
v 0.087846 0.130609 -0.069269
v -0.065141 0.139290 -0.069269
v -0.065141 0.139290 0.071457
v 0.087846 0.139290 0.071457
v 0.087846 0.139290 -0.069269
v -0.036082 0.151669 -0.042539
v -0.036082 0.151669 0.044728
v 0.058787 0.151669 0.044728
v 0.058787 0.151669 -0.042539
v -0.031979 0.151669 0.044728
v -0.031979 0.151669 -0.042539
v 0.054684 0.151669 0.044728
v 0.054684 0.151669 -0.042539
v -0.049499 0.135127 0.057069
v -0.049499 0.135127 0.061945
v 0.066939 0.135127 0.061945
v 0.072204 0.135127 0.061945
v 0.072204 0.135127 -0.054880
v 0.072204 0.135127 -0.059757
v -0.044234 0.135127 -0.059757
v -0.049499 0.135127 -0.059757
v -0.043683 0.135127 0.051719
v -0.043683 0.135127 0.056130
v 0.061626 0.135127 0.056130
v 0.066388 0.135127 0.056130
v 0.066388 0.135127 -0.049531
v 0.066388 0.135127 -0.053941
v -0.038921 0.135127 -0.053941
v -0.043683 0.135127 -0.053941
v -0.044234 0.135127 0.061945
v 0.066939 0.135127 -0.059757
v -0.038921 0.135127 0.056130
v 0.061626 0.135127 -0.053941
v -0.049499 0.135127 -0.054880
v 0.072204 0.135127 0.057069
v -0.043683 0.135127 -0.049531
v 0.066388 0.135127 0.051719
v 0.002671 0.151669 0.009836
v 0.002671 0.151669 -0.007647
v 0.020034 0.151669 0.009836
v 0.020034 0.151669 -0.007647
v 0.002671 0.160160 0.009836
v 0.002671 0.160160 -0.007647
v 0.020034 0.160160 0.009836
v 0.020034 0.160160 -0.007647
v -0.058001 -0.097940 0.064889
v -0.058001 -0.097940 0.070447
v 0.074705 -0.097940 0.070447
v 0.080706 -0.097940 0.070447
v 0.080706 -0.097940 -0.062701
v 0.080706 -0.097940 -0.068259
v -0.052000 -0.097940 -0.068259
v -0.058001 -0.097940 -0.068259
v -0.052000 -0.097940 0.070447
v 0.074705 -0.097940 -0.068259
v -0.052000 -0.097940 0.064889
v 0.074705 -0.097940 0.064889
v -0.058001 -0.097940 -0.062701
v 0.080706 -0.097940 0.064889
v -0.052000 -0.097940 -0.062701
v 0.074705 -0.097940 -0.062701
v 0.040674 0.193692 0.001094
v 0.040112 0.201724 0.001094
v 0.038443 0.209448 0.001094
v 0.035733 0.216566 0.001094
v 0.032086 0.222805 0.001094
v 0.027643 0.227925 0.001094
v 0.022573 0.231730 0.001094
v 0.017073 0.234073 0.001094
v 0.011353 0.234864 0.001094
v 0.005632 0.234073 0.001094
v 0.000132 0.231730 0.001094
v -0.004938 0.227925 0.001094
v -0.009381 0.222805 0.001094
v -0.013028 0.216566 0.001094
v -0.015738 0.209448 0.001094
v -0.017406 0.201724 0.001094
v -0.017969 0.193692 0.001094
v -0.017406 0.185660 0.001094
v -0.015738 0.177936 0.001094
v -0.013028 0.170818 0.001094
v -0.009381 0.164579 0.001094
v -0.004938 0.159459 0.001094
v 0.000132 0.155654 0.001094
v 0.005632 0.153311 0.001094
v 0.011353 0.152520 0.001094
v 0.017073 0.153311 0.001094
v 0.022573 0.155654 0.001094
v 0.027643 0.159459 0.001094
v 0.032086 0.164579 0.001094
v 0.035733 0.170818 0.001094
v 0.038443 0.177936 0.001094
v 0.040112 0.185660 0.001094
v 0.038015 0.193692 0.001094
v 0.037503 0.200996 0.001094
v 0.035986 0.208019 0.001094
v 0.033523 0.214492 0.001094
v 0.030207 0.220165 0.001094
v 0.026166 0.224821 0.001094
v 0.021556 0.228281 0.001094
v 0.016554 0.230411 0.001094
v 0.011353 0.231131 0.001094
v 0.006151 0.230411 0.001094
v 0.001149 0.228281 0.001094
v -0.003461 0.224821 0.001094
v -0.007502 0.220165 0.001094
v -0.010818 0.214492 0.001094
v -0.013281 0.208019 0.001094
v -0.014798 0.200996 0.001094
v -0.015310 0.193692 0.001094
v -0.014798 0.186388 0.001094
v -0.013281 0.179365 0.001094
v -0.010818 0.172892 0.001094
v -0.007502 0.167219 0.001094
v -0.003461 0.162563 0.001094
v 0.001149 0.159103 0.001094
v 0.006151 0.156972 0.001094
v 0.011353 0.156253 0.001094
v 0.016554 0.156972 0.001094
v 0.021556 0.159103 0.001094
v 0.026166 0.162563 0.001094
v 0.030207 0.167219 0.001094
v 0.033523 0.172892 0.001094
v 0.035986 0.179365 0.001094
v 0.037503 0.186388 0.001094
v 0.040112 0.201724 0.003318
v 0.040674 0.193692 0.003318
v 0.038443 0.209448 0.003318
v 0.035733 0.216566 0.003318
v 0.032086 0.222805 0.003318
v 0.027643 0.227925 0.003318
v 0.022573 0.231730 0.003318
v 0.017073 0.234073 0.003318
v 0.011353 0.234864 0.003318
v 0.005632 0.234073 0.003318
v 0.000132 0.231730 0.003318
v -0.004938 0.227925 0.003318
v -0.009381 0.222805 0.003318
v -0.013028 0.216566 0.003318
v -0.015738 0.209448 0.003318
v -0.017406 0.201724 0.003318
v -0.017969 0.193692 0.003318
v -0.017406 0.185660 0.003318
v -0.015738 0.177936 0.003318
v -0.013028 0.170818 0.003318
v -0.009381 0.164579 0.003318
v -0.004938 0.159459 0.003318
v 0.000132 0.155654 0.003318
v 0.005632 0.153311 0.003318
v 0.011353 0.152520 0.003318
v 0.017073 0.153311 0.003318
v 0.022573 0.155654 0.003318
v 0.027643 0.159459 0.003318
v 0.032086 0.164579 0.003318
v 0.035733 0.170818 0.003318
v 0.038443 0.177936 0.003318
v 0.040112 0.185660 0.003318
v 0.037503 0.200996 0.003318
v 0.038015 0.193692 0.003318
v 0.035986 0.208019 0.003318
v 0.033523 0.214492 0.003318
v 0.030207 0.220165 0.003318
v 0.026166 0.224821 0.003318
v 0.021556 0.228281 0.003318
v 0.016554 0.230411 0.003318
v 0.011353 0.231131 0.003318
v 0.006151 0.230411 0.003318
v 0.001149 0.228281 0.003318
v -0.003461 0.224821 0.003318
v -0.007502 0.220165 0.003318
v -0.010818 0.214492 0.003318
v -0.013281 0.208019 0.003318
v -0.014798 0.200996 0.003318
v -0.015310 0.193692 0.003318
v -0.014798 0.186388 0.003318
v -0.013281 0.179365 0.003318
v -0.010818 0.172892 0.003318
v -0.007502 0.167219 0.003318
v -0.003461 0.162563 0.003318
v 0.001149 0.159103 0.003318
v 0.006151 0.156972 0.003318
v 0.011353 0.156253 0.003318
v 0.016554 0.156972 0.003318
v 0.021556 0.159103 0.003318
v 0.026166 0.162563 0.003318
v 0.030207 0.167219 0.003318
v 0.033523 0.172892 0.003318
v 0.035986 0.179365 0.003318
v 0.037503 0.186388 0.003318
vn -0.0000 -0.0000 -1.0000
vn -0.0000 1.0000 -0.0000
vn -0.0000 0.4618 -0.8870
vn -0.0000 0.4618 0.8870
vn 0.8870 0.4618 -0.0000
vn -0.8870 0.4618 -0.0000
vn 0.9520 0.3061 -0.0000
vn 0.9987 0.0505 -0.0000
vn -0.9520 0.3061 -0.0000
vn -0.0000 0.3060 -0.9520
vn -0.0000 0.3060 0.9520
vn -0.9979 -0.0642 -0.0000
vn -0.9987 0.0505 -0.0000
vn 0.6770 -0.0000 0.7360
vn 0.9984 -0.0558 -0.0000
vn -0.0000 -1.0000 -0.0000
vn -0.0000 -0.0642 -0.9979
vn -0.0000 -0.0642 0.9979
vn 0.9979 -0.0642 -0.0000
vn -0.0000 -0.0000 1.0000
vn -0.3919 0.9200 -0.0000
vn 1.0000 -0.0000 -0.0000
vn -1.0000 -0.0000 -0.0000
vn -0.0000 0.9200 -0.3919
vn -0.0000 0.9200 0.3919
vn 0.3919 0.9200 -0.0000
vn -0.0000 0.0505 -0.9987
vn 0.6770 -0.0000 -0.7360
vn 0.7383 -0.0000 -0.6745
vn -0.0000 -0.0558 0.9984
vn -0.0000 -0.0558 -0.9984
vn -0.6770 -0.0000 0.7360
vn -0.0000 0.0505 0.9987
vn -0.6770 -0.0000 -0.7360
vn 0.7383 -0.0000 0.6744
vn -0.9984 -0.0558 -0.0000
vn -0.7383 -0.0000 0.6745
vn -0.7383 -0.0000 -0.6744
vn 0.9976 -0.0699 -0.0000
vn 0.6003 0.7998 -0.0000
vn 0.7553 -0.6554 -0.0000
vn 0.3918 0.9201 -0.0000
vn 0.8633 -0.5046 -0.0000
vn 0.1371 0.9906 -0.0000
vn 0.9346 -0.3557 -0.0000
vn -0.1371 0.9906 -0.0000
vn 0.9774 -0.2112 -0.0000
vn -0.3918 0.9201 -0.0000
vn -0.6003 0.7998 -0.0000
vn 0.9976 0.0699 -0.0000
vn -0.7552 0.6554 -0.0000
vn 0.9774 0.2112 -0.0000
vn -0.8633 0.5046 -0.0000
vn 0.9346 0.3557 -0.0000
vn -0.9346 0.3557 -0.0000
vn 0.8633 0.5046 -0.0000
vn -0.9774 0.2112 -0.0000
vn 0.7553 0.6554 -0.0000
vn -0.9976 0.0699 -0.0000
vn -0.9976 -0.0699 -0.0000
vn -0.9774 -0.2112 -0.0000
vn 0.1370 0.9906 -0.0000
vn -0.9346 -0.3557 -0.0000
vn -0.1370 0.9906 -0.0000
vn -0.8633 -0.5046 -0.0000
vn -0.7552 -0.6554 -0.0000
vn -0.6003 -0.7998 -0.0000
vn -0.7553 0.6554 -0.0000
vn -0.3919 -0.9200 -0.0000
vn -0.1369 -0.9906 -0.0000
vn 0.1369 -0.9906 -0.0000
vn -0.7553 -0.6554 -0.0000
vn 0.3919 -0.9200 -0.0000
vn 0.6003 -0.7998 -0.0000
vn 0.7552 -0.6554 -0.0000
vn -0.1370 -0.9906 -0.0000
vn 0.1370 -0.9906 -0.0000
vn 0.7552 0.6554 -0.0000
vt 0.000000 1.000000
vt 0.333333 1.000000
vt 0.666667 0.000000
vt 1.000000 0.000000
vt 1.000000 0.959930
vt 1.000000 1.000000
vt 0.000000 0.040070
vt 0.000000 0.000000
vt 0.000000 0.959930
vt 0.666667 0.959930
vt 0.666667 1.000000
vt 0.333333 0.000000
vt 0.333333 0.959930
vt 1.000000 0.040070
vt 0.666667 0.040070
vt 0.333333 0.040070
s 0
usemtl LanternIron
f 3/1/1 40/2/1 151/2/1 152/1/1
f 44/2/2 7/1/2 11/1/2 48/2/2
f 40/2/3 3/1/3 7/1/3 44/2/3
f 38/3/4 2/4/4 6/4/4 42/3/4
f 76/5/5 4/6/5 8/6/5 80/5/5
f 74/7/6 1/8/6 5/8/6 78/7/6
f 84/5/7 12/6/7 16/6/7 88/5/7
f 42/3/2 6/4/2 10/4/2 46/3/2
f 80/5/2 8/6/2 12/6/2 84/5/2
f 78/7/2 5/8/2 9/8/2 82/7/2
f 89/9/8 19/1/8 128/1/8 135/9/8
f 82/7/9 9/8/9 13/8/9 86/7/9
f 48/2/10 11/1/10 15/1/10 52/2/10
f 46/3/11 10/4/11 14/4/11 50/3/11
f 90/7/12 17/8/12 21/8/12 94/7/12
f 20/6/13 92/5/13 125/5/13 126/6/13
f 92/5/14 88/5/14 117/5/14 125/5/14
f 88/5/15 16/6/15 118/6/15 117/5/15
f 60/2/16 23/1/16 27/1/16 64/2/16
f 56/2/17 19/1/17 23/1/17 60/2/17
f 54/3/18 18/4/18 22/4/18 58/3/18
f 92/5/19 20/6/19 24/6/19 96/5/19
f 62/3/20 26/4/20 30/4/20 66/3/20
f 58/3/16 22/4/16 26/4/16 62/3/16
f 96/5/16 24/6/16 28/6/16 100/5/16
f 94/7/16 21/8/16 25/8/16 98/7/16
f 102/7/21 29/8/21 33/8/21 106/7/21
f 100/5/22 28/6/22 32/6/22 104/5/22
f 98/7/23 25/8/23 29/8/23 102/7/23
f 64/2/1 27/1/1 31/1/1 68/2/1
f 112/10/2 108/5/2 36/6/2 71/11/2
f 68/2/24 31/1/24 35/1/24 72/2/24
f 66/3/25 30/4/25 34/4/25 70/3/25
f 104/5/26 32/6/26 36/6/26 108/5/26
f 29/8/25 65/12/25 69/12/25 33/8/25
f 65/12/25 66/3/25 70/3/25 69/12/25
f 32/6/24 67/11/24 71/11/24 36/6/24
f 67/11/24 68/2/24 72/2/24 71/11/24
f 105/9/2 110/13/2 72/2/2 35/1/2
f 110/13/2 112/10/2 71/11/2 72/2/2
f 28/6/1 63/11/1 67/11/1 32/6/1
f 63/11/1 64/2/1 68/2/1 67/11/1
f 21/8/16 57/12/16 61/12/16 25/8/16
f 57/12/16 58/3/16 62/3/16 61/12/16
f 25/8/20 61/12/20 65/12/20 29/8/20
f 61/12/20 62/3/20 66/3/20 65/12/20
f 17/8/18 53/12/18 57/12/18 21/8/18
f 20/6/17 55/11/17 59/11/17 24/6/17
f 24/6/16 59/11/16 63/11/16 28/6/16
f 59/11/16 60/2/16 64/2/16 63/11/16
f 18/4/27 54/3/27 123/3/27 124/4/27
f 49/12/2 50/3/2 54/3/2 53/12/2
f 87/14/28 91/14/28 136/14/28 134/14/28
f 51/11/2 52/2/2 56/2/2 55/11/2
f 9/8/11 45/12/11 49/12/11 13/8/11
f 45/12/11 46/3/11 50/3/11 49/12/11
f 12/6/10 47/11/10 51/11/10 16/6/10
f 47/11/10 48/2/10 52/2/10 51/11/10
f 5/8/2 41/12/2 45/12/2 9/8/2
f 41/12/2 42/3/2 46/3/2 45/12/2
f 1/8/4 37/12/4 41/12/4 5/8/4
f 37/12/4 38/3/4 42/3/4 41/12/4
f 4/6/3 39/11/3 43/11/3 8/6/3
f 39/11/3 40/2/3 44/2/3 43/11/3
f 8/6/2 43/11/2 47/11/2 12/6/2
f 43/11/2 44/2/2 48/2/2 47/11/2
f 75/14/22 2/4/22 148/4/22 158/14/22
f 39/11/1 4/6/1 150/6/1 154/11/1
f 4/6/22 76/5/22 149/5/22 150/6/22
f 74/7/23 73/9/23 157/9/23 145/7/23
f 38/3/20 37/12/20 153/12/20 147/3/20
f 2/4/20 38/3/20 147/3/20 148/4/20
f 69/12/2 70/3/2 111/15/2 109/16/2
f 111/15/2 112/10/2 140/10/2 139/15/2
f 33/8/2 69/12/2 109/16/2 106/7/2
f 106/7/2 109/16/2 110/13/2 105/9/2
f 30/4/26 103/14/26 107/14/26 34/4/26
f 103/14/26 104/5/26 108/5/26 107/14/26
f 70/3/2 34/4/2 107/14/2 111/15/2
f 111/15/2 107/14/2 108/5/2 112/10/2
f 27/1/23 97/9/23 101/9/23 31/1/23
f 97/9/23 98/7/23 102/7/23 101/9/23
f 26/4/22 99/14/22 103/14/22 30/4/22
f 99/14/22 100/5/22 104/5/22 103/14/22
f 31/1/21 101/9/21 105/9/21 35/1/21
f 101/9/21 102/7/21 106/7/21 105/9/21
f 23/1/16 93/9/16 97/9/16 27/1/16
f 93/9/16 94/7/16 98/7/16 97/9/16
f 22/4/16 95/14/16 99/14/16 26/4/16
f 95/14/16 96/5/16 100/5/16 99/14/16
f 18/4/19 91/14/19 95/14/19 22/4/19
f 56/2/29 52/2/29 119/2/29 127/2/29
f 85/9/2 86/7/2 90/7/2 89/9/2
f 19/1/12 89/9/12 93/9/12 23/1/12
f 11/1/9 81/9/9 85/9/9 15/1/9
f 81/9/9 82/7/9 86/7/9 85/9/9
f 50/3/30 14/4/30 116/4/30 115/3/30
f 87/14/2 88/5/2 92/5/2 91/14/2
f 7/1/2 77/9/2 81/9/2 11/1/2
f 77/9/2 78/7/2 82/7/2 81/9/2
f 6/4/2 79/14/2 83/14/2 10/4/2
f 79/14/2 80/5/2 84/5/2 83/14/2
f 10/4/7 83/14/7 87/14/7 14/4/7
f 83/14/7 84/5/7 88/5/7 87/14/7
f 3/1/6 73/9/6 77/9/6 7/1/6
f 73/9/6 74/7/6 78/7/6 77/9/6
f 2/4/5 75/14/5 79/14/5 6/4/5
f 75/14/5 76/5/5 80/5/5 79/14/5
f 73/9/23 3/1/23 152/1/23 157/9/23
f 76/5/22 75/14/22 158/14/22 149/5/22
f 117/5/2 118/6/2 126/6/2 125/5/2
f 113/7/2 114/8/2 122/8/2 121/7/2
f 119/2/2 120/1/2 128/1/2 127/2/2
f 115/3/2 116/4/2 124/4/2 123/3/2
f 114/8/2 129/12/2 131/12/2 122/8/2
f 118/6/2 130/11/2 132/11/2 126/6/2
f 120/1/2 133/9/2 135/9/2 128/1/2
f 116/4/2 134/14/2 136/14/2 124/4/2
f 16/6/31 51/11/31 130/11/31 118/6/31
f 85/9/32 89/9/32 135/9/32 133/9/32
f 52/2/31 15/1/31 120/1/31 119/2/31
f 19/1/33 56/2/33 127/2/33 128/1/33
f 90/7/34 86/7/34 113/7/34 121/7/34
f 91/14/13 18/4/13 124/4/13 136/14/13
f 53/12/27 17/8/27 122/8/27 131/12/27
f 49/12/35 53/12/35 131/12/35 129/12/35
f 15/1/36 85/9/36 133/9/36 120/1/36
f 54/3/37 50/3/37 115/3/37 123/3/37
f 55/11/33 20/6/33 126/6/33 132/11/33
f 86/7/36 13/8/36 114/8/36 113/7/36
f 51/11/38 55/11/38 132/11/38 130/11/38
f 17/8/8 90/7/8 121/7/8 122/8/8
f 14/4/15 87/14/15 134/14/15 116/4/15
f 13/8/30 49/12/30 129/12/30 114/8/30
f 137/16/20 139/15/20 143/15/20 141/16/20
f 110/13/2 109/16/2 137/16/2 138/13/2
f 109/16/2 111/15/2 139/15/2 137/16/2
f 112/10/2 110/13/2 138/13/2 140/10/2
f 141/16/2 143/15/2 144/10/2 142/13/2
f 138/13/23 137/16/23 141/16/23 142/13/23
f 140/10/1 138/13/1 142/13/1 144/10/1
f 139/15/22 140/10/22 144/10/22 143/15/22
f 160/10/16 154/11/16 150/6/16 149/5/16
f 157/9/16 152/1/16 151/2/16 159/13/16
f 159/13/16 151/2/16 154/11/16 160/10/16
f 153/12/16 155/16/16 156/15/16 147/3/16
f 155/16/16 159/13/16 160/10/16 156/15/16
f 146/8/16 145/7/16 155/16/16 153/12/16
f 145/7/16 157/9/16 159/13/16 155/16/16
f 147/3/16 156/15/16 158/14/16 148/4/16
f 156/15/16 160/10/16 149/5/16 158/14/16
f 40/2/1 39/11/1 154/11/1 151/2/1
f 1/8/23 74/7/23 145/7/23 146/8/23
f 37/12/20 1/8/20 146/8/20 153/12/20
f 172/8/20 204/8/20 203/8/20 171/8/20
f 186/8/20 218/8/20 217/8/20 185/8/20
f 173/8/20 205/8/20 204/8/20 172/8/20
f 187/8/20 219/8/20 218/8/20 186/8/20
f 174/8/20 206/8/20 205/8/20 173/8/20
f 188/8/20 220/8/20 219/8/20 187/8/20
f 175/8/20 207/8/20 206/8/20 174/8/20
f 162/8/20 194/8/20 193/8/20 161/8/20
f 189/8/20 221/8/20 220/8/20 188/8/20
f 176/8/20 208/8/20 207/8/20 175/8/20
f 163/8/20 195/8/20 194/8/20 162/8/20
f 190/8/20 222/8/20 221/8/20 189/8/20
f 177/8/20 209/8/20 208/8/20 176/8/20
f 164/8/20 196/8/20 195/8/20 163/8/20
f 191/8/20 223/8/20 222/8/20 190/8/20
f 178/8/20 210/8/20 209/8/20 177/8/20
f 165/8/20 197/8/20 196/8/20 164/8/20
f 192/8/20 224/8/20 223/8/20 191/8/20
f 179/8/20 211/8/20 210/8/20 178/8/20
f 166/8/20 198/8/20 197/8/20 165/8/20
f 161/8/20 193/8/20 224/8/20 192/8/20
f 180/8/20 212/8/20 211/8/20 179/8/20
f 167/8/20 199/8/20 198/8/20 166/8/20
f 181/8/20 213/8/20 212/8/20 180/8/20
f 168/8/20 200/8/20 199/8/20 167/8/20
f 182/8/20 214/8/20 213/8/20 181/8/20
f 169/8/20 201/8/20 200/8/20 168/8/20
f 183/8/20 215/8/20 214/8/20 182/8/20
f 170/8/20 202/8/20 201/8/20 169/8/20
f 184/8/20 216/8/20 215/8/20 183/8/20
f 171/8/20 203/8/20 202/8/20 170/8/20
f 185/8/20 217/8/20 216/8/20 184/8/20
f 236/8/1 235/8/1 267/8/1 268/8/1
f 250/8/1 249/8/1 281/8/1 282/8/1
f 237/8/1 236/8/1 268/8/1 269/8/1
f 251/8/1 250/8/1 282/8/1 283/8/1
f 238/8/1 237/8/1 269/8/1 270/8/1
f 252/8/1 251/8/1 283/8/1 284/8/1
f 239/8/1 238/8/1 270/8/1 271/8/1
f 225/8/1 226/8/1 258/8/1 257/8/1
f 253/8/1 252/8/1 284/8/1 285/8/1
f 240/8/1 239/8/1 271/8/1 272/8/1
f 227/8/1 225/8/1 257/8/1 259/8/1
f 254/8/1 253/8/1 285/8/1 286/8/1
f 241/8/1 240/8/1 272/8/1 273/8/1
f 228/8/1 227/8/1 259/8/1 260/8/1
f 255/8/1 254/8/1 286/8/1 287/8/1
f 242/8/1 241/8/1 273/8/1 274/8/1
f 229/8/1 228/8/1 260/8/1 261/8/1
f 256/8/1 255/8/1 287/8/1 288/8/1
f 243/8/1 242/8/1 274/8/1 275/8/1
f 230/8/1 229/8/1 261/8/1 262/8/1
f 226/8/1 256/8/1 288/8/1 258/8/1
f 244/8/1 243/8/1 275/8/1 276/8/1
f 231/8/1 230/8/1 262/8/1 263/8/1
f 245/8/1 244/8/1 276/8/1 277/8/1
f 232/8/1 231/8/1 263/8/1 264/8/1
f 246/8/1 245/8/1 277/8/1 278/8/1
f 233/8/1 232/8/1 264/8/1 265/8/1
f 247/8/1 246/8/1 278/8/1 279/8/1
f 234/8/1 233/8/1 265/8/1 266/8/1
f 248/8/1 247/8/1 279/8/1 280/8/1
f 235/8/1 234/8/1 266/8/1 267/8/1
f 249/8/1 248/8/1 280/8/1 281/8/1
f 224/8/39 193/8/39 258/8/39 288/8/39
f 198/8/40 199/8/40 263/8/40 262/8/40
f 173/8/41 172/8/41 236/8/41 237/8/41
f 199/8/42 200/8/42 264/8/42 263/8/42
f 174/8/43 173/8/43 237/8/43 238/8/43
f 200/8/44 201/8/44 265/8/44 264/8/44
f 175/8/45 174/8/45 238/8/45 239/8/45
f 201/8/46 202/8/46 266/8/46 265/8/46
f 176/8/47 175/8/47 239/8/47 240/8/47
f 202/8/48 203/8/48 267/8/48 266/8/48
f 177/8/39 176/8/39 240/8/39 241/8/39
f 203/8/49 204/8/49 268/8/49 267/8/49
f 178/8/50 177/8/50 241/8/50 242/8/50
f 204/8/51 205/8/51 269/8/51 268/8/51
f 179/8/52 178/8/52 242/8/52 243/8/52
f 205/8/53 206/8/53 270/8/53 269/8/53
f 180/8/54 179/8/54 243/8/54 244/8/54
f 206/8/55 207/8/55 271/8/55 270/8/55
f 181/8/56 180/8/56 244/8/56 245/8/56
f 207/8/57 208/8/57 272/8/57 271/8/57
f 182/8/58 181/8/58 245/8/58 246/8/58
f 208/8/59 209/8/59 273/8/59 272/8/59
f 183/8/40 182/8/40 246/8/40 247/8/40
f 209/8/60 210/8/60 274/8/60 273/8/60
f 184/8/26 183/8/26 247/8/26 248/8/26
f 210/8/61 211/8/61 275/8/61 274/8/61
f 185/8/62 184/8/62 248/8/62 249/8/62
f 211/8/63 212/8/63 276/8/63 275/8/63
f 186/8/64 185/8/64 249/8/64 250/8/64
f 212/8/65 213/8/65 277/8/65 276/8/65
f 187/8/21 186/8/21 250/8/21 251/8/21
f 213/8/66 214/8/66 278/8/66 277/8/66
f 188/8/49 187/8/49 251/8/49 252/8/49
f 162/8/60 161/8/60 226/8/60 225/8/60
f 214/8/67 215/8/67 279/8/67 278/8/67
f 189/8/68 188/8/68 252/8/68 253/8/68
f 163/8/61 162/8/61 225/8/61 227/8/61
f 215/8/69 216/8/69 280/8/69 279/8/69
f 190/8/53 189/8/53 253/8/53 254/8/53
f 164/8/63 163/8/63 227/8/63 228/8/63
f 216/8/70 217/8/70 281/8/70 280/8/70
f 191/8/55 190/8/55 254/8/55 255/8/55
f 165/8/65 164/8/65 228/8/65 229/8/65
f 217/8/71 218/8/71 282/8/71 281/8/71
f 192/8/57 191/8/57 255/8/57 256/8/57
f 166/8/72 165/8/72 229/8/72 230/8/72
f 218/8/73 219/8/73 283/8/73 282/8/73
f 161/8/59 192/8/59 256/8/59 226/8/59
f 167/8/67 166/8/67 230/8/67 231/8/67
f 219/8/74 220/8/74 284/8/74 283/8/74
f 193/8/50 194/8/50 257/8/50 258/8/50
f 168/8/69 167/8/69 231/8/69 232/8/69
f 220/8/75 221/8/75 285/8/75 284/8/75
f 194/8/52 195/8/52 259/8/52 257/8/52
f 169/8/76 168/8/76 232/8/76 233/8/76
f 221/8/43 222/8/43 286/8/43 285/8/43
f 195/8/54 196/8/54 260/8/54 259/8/54
f 170/8/77 169/8/77 233/8/77 234/8/77
f 222/8/45 223/8/45 287/8/45 286/8/45
f 196/8/56 197/8/56 261/8/56 260/8/56
f 171/8/73 170/8/73 234/8/73 235/8/73
f 223/8/47 224/8/47 288/8/47 287/8/47
f 197/8/78 198/8/78 262/8/78 261/8/78
f 172/8/74 171/8/74 235/8/74 236/8/74
usemtl LanternLight
f 53/12/18 54/3/18 58/3/18 57/12/18
f 55/11/17 56/2/17 60/2/17 59/11/17
f 91/14/19 92/5/19 96/5/19 95/14/19
f 89/9/12 90/7/12 94/7/12 93/9/12
